<svg version="1.1" xmlns="http://www.w3.org/2000/svg" xmlns:xlink="http://www.w3.org/1999/xlink" xmlns:i="http://ns.adobe.com/AdobeIllustrator/10.0/" xmlns:sketch="http://www.bohemiancoding.com/sketch/ns" viewBox="0 0 640 480" xml:space="preserve" preserveAspectRatio="xMidYMid meet" class=""><defs><linearGradient id="textGradient2311761688"><stop offset="0.05" stop-color="#B68648"></stop><stop offset="0.95" stop-color="#FBF3A3"></stop></linearGradient></defs>{{text2Gradient}}<defs><linearGradient id="sloganGradient2311761688"><stop offset="0.05" stop-color="#B68648"></stop><stop offset="0.95" stop-color="#FBF3A3"></stop></linearGradient></defs><defs><linearGradient id="iconGradient2311761688"><stop offset="0.05" stop-color="#B68648"></stop><stop offset="0.95" stop-color="#FBF3A3"></stop></linearGradient></defs><rect x="0px" y="0px" width="100%" height="100%" fill="#101614"></rect><g class="logo-container-box logoContainerBox" transform="scale(0.99) translate(3.2323232323232105,2.424234794847905)"><g class="containerBody" transform="scale(1.12) translate(-34.285714285714334,-2.0375050136021287)"><g class="sampleIconBox" transform="scale(1) translate(0,0)"><g class="sampleIcons_1" transform="scale(5.86536186072376) translate(41.75896561940511,16.34554696655273)" fill="url(#iconGradient2311761688)"><g><g stroke="none" stroke-width="1" fill-rule="evenodd"><g transform="translate(-312.000000, -72.000000)"><g transform="translate(312.000000, 71.000000)"><path d="M10,14 L6.00501219,14 C6.03366788,15.4262424 6.18427382,16.7780724 6.43304861,18 L10,18 L10,14 Z M11,14 L14.9949878,14 C14.9663321,15.4262424 14.8157262,16.7780724 14.5669514,18 L11,18 L11,14 Z M10,23.9359164 C8.58955318,23.5721101 7.37557124,21.6872921 6.66599891,19 L10,19 L10,23.9359164 Z M11,23.9359164 L11,19 L14.3340011,19 C13.6244288,21.6872921 12.4104468,23.5721101 11,23.9359164 Z M10,9 L6.43304861,9 C6.18427382,10.2219276 6.03366788,11.5737576 6.00501219,13 L10,13 L10,9 Z M10,3.06408357 L10,8 L6.66599891,8 C7.37557124,5.31270791 8.58955318,3.42788988 10,3.06408357 Z M1.01044675,18 C0.429972244,16.7780724 0.0785583977,15.4262424 0.0116951024,14 L5.00510505,14 C5.03404529,15.4145108 5.18518924,16.7628389 5.43702267,18 L1.01044675,18 Z M1.55399638,19 L5.66861563,19 C6.18884841,20.9936877 6.98312418,22.6298272 7.94560105,23.6871128 C5.2527841,23.014057 2.9718361,21.3012728 1.55399816,19.0000012 Z M19.9895533,18 C20.5700278,16.7780724 20.9214416,15.4262424 20.9883049,14 L15.994895,14 C15.9659547,15.4145108 15.8148108,16.7628389 15.5629773,18 L19.9895533,18 Z M19.4460025,19 C18.0281647,21.3012722 15.7472163,23.0140569 13.054399,23.6871128 C14.0168758,22.6298272 14.8111516,20.9936877 15.3313844,19 L19.4460025,19 Z M0.0116951024,13 C0.0785583977,11.5737576 0.429972244,10.2219276 1.01044675,9 L5.43702267,9 C5.18518926,10.237161 5.03404532,11.5854889 5.00510505,12.9999996 L0.0116951024,13 Z M1.55399829,7.99999864 C2.97183623,5.69872713 5.25278418,3.98594296 7.94560105,3.31288723 C6.98312418,4.37017283 6.18884841,6.00631234 5.66861563,8 L1.55399601,8 Z"></path><g transform="translate(17.792783, 6.825404) rotate(-25.000000) translate(-17.792783, -6.825404) translate(11.292783, 2.325404)"><path d="M4.00128103,7 L4.27901865,8.50952148 C4.3288587,8.78040529 4.1494896,9 3.87926057,9 L2.65137747,9 C2.38075713,9 2.12180748,8.78494263 2.07113261,8.50952148 L1.79339499,7 L4.00128103,7 Z"></path><path d="M3.01980663e-14,3.50083274 C3.01980663e-14,2.6719457 0.674322248,2 1.50016487,2 L3,2 L3,6 L1.50016487,6 C0.671646689,6 3.01980663e-14,5.32145452 3.01980663e-14,4.49916726 L3.01980663e-14,3.50083274 Z"></path><path d="M11,4 C11,3.72385763 11.214035,3.5 11.5046844,3.5 L12.4953156,3.5 C12.7740451,3.5 13,3.73193359 13,4 C13,4.27614237 12.785965,4.5 12.4953156,4.5 L11.5046844,4.5 C11.2259549,4.5 11,4.26806641 11,4 Z"></path><path d="M10.1873844,1.84523652 C10.0706816,1.59496654 10.1700569,1.30162752 10.4334747,1.17879377 L11.3312914,0.760134971 C11.5839062,0.642338784 11.8867102,0.757049329 12,1 C12.1167028,1.25026998 12.0173275,1.54360901 11.7539097,1.66644276 L10.856093,2.08510155 C10.6034783,2.20289774 10.3006742,2.08818719 10.1873844,1.84523652 Z"></path><path d="M10.1873844,6.15476348 C10.0706816,6.40503346 10.1700569,6.69837248 10.4334747,6.82120623 L11.3312914,7.23986503 C11.5839062,7.35766122 11.8867102,7.24295067 12,7 C12.1167028,6.74973002 12.0173275,6.45639099 11.7539097,6.33355724 L10.856093,5.91489845 C10.6034783,5.79710226 10.3006742,5.91181281 10.1873844,6.15476348 Z"></path><path d="M4,5.6952617 C4,5.97401928 4.21704435,6.28681484 4.46462995,6.38584924 L8.5,7.5 L8.5,0.5 L4.46462995,1.61415076 C4.20802191,1.71679415 4,2.02424853 4,2.3047383 L4,5.6952617 Z" transform="translate(6.250000, 4.000000) scale(1, -1) translate(-6.250000, -4.000000) "></path><path d="M8,7.49956417 C8,7.77594725 8.23193359,8 8.5,8 C8.77614237,8 9,7.76920319 9,7.49956417 L9,0.500435829 C9,0.224052752 8.76806641,-1.19015908e-13 8.5,-1.19015908e-13 C8.22385763,-1.19015908e-13 8,0.230796814 8,0.500435829 L8,7.49956417 Z" transform="translate(8.500000, 4.000000) scale(1, -1) translate(-8.500000, -4.000000) "></path></g></g></g></g></g></g></g><g class="sampleTexts_1" transform="scale(1) translate(0,-19.250769042968756)"><g class="logo--name svgLogoName_1 logoNameBox" transform="scale(1) translate(124.63270854949951,326.4)" fill="url(#textGradient2311761688)"><path d="M28.27-52.21L9.61-52.21L9.61-52.21Q9.13-52.21 9.13-52.69L9.13-52.69L9.13-52.69Q9.13-53.17 9.61-53.17L9.61-53.17L47.93-53.17L47.93-53.17Q48.37-53.17 48.37-52.69L48.37-52.69L48.37-52.69Q48.37-52.21 47.93-52.21L47.93-52.21L29.23-52.21L29.23-4.80L29.23-4.80Q29.23-4.32 28.75-4.32L28.75-4.32L28.75-4.32Q28.27-4.32 28.27-4.80L28.27-4.80L28.27-52.21ZM28.75 0L28.75 0Q30.75 0 32.15-1.40L32.15-1.40L32.15-1.40Q33.55-2.80 33.55-4.80L33.55-4.80L33.55-47.89L47.93-47.89L47.93-47.89Q49.89-47.89 51.29-49.29L51.29-49.29L51.29-49.29Q52.69-50.69 52.69-52.69L52.69-52.69L52.69-52.69Q52.69-54.65 51.29-56.05L51.29-56.05L51.29-56.05Q49.89-57.46 47.93-57.46L47.93-57.46L9.61-57.46L9.61-57.46Q7.61-57.46 6.21-56.05L6.21-56.05L6.21-56.05Q4.80-54.65 4.80-52.69L4.80-52.69L4.80-52.69Q4.80-50.69 6.21-49.29L6.21-49.29L6.21-49.29Q7.61-47.89 9.61-47.89L9.61-47.89L23.94-47.89L23.94-4.80L23.94-4.80Q23.94-2.80 25.34-1.40L25.34-1.40L25.34-1.40Q26.79 0 28.75 0L28.75 0ZM92.05-23.46L68.59-23.46L68.59-4.80L68.59-4.80Q68.59-4.32 68.11-4.32L68.11-4.32L68.11-4.32Q67.63-4.32 67.63-4.80L67.63-4.80L67.63-52.69L67.63-52.69Q67.63-53.17 68.11-53.17L68.11-53.17L92.05-53.17L92.05-53.17Q98.17-53.17 102.54-48.81L102.54-48.81L102.54-48.81Q106.86-44.44 106.86-38.32L106.86-38.32L106.86-38.32Q106.86-32.99 103.50-28.91L103.50-28.91L103.50-28.91Q100.18-24.86 95.09-23.78L95.09-23.78L106.82-5.04L106.82-5.04Q107.06-4.64 106.66-4.36L106.66-4.36L106.66-4.36Q106.54-4.32 106.42-4.32L106.42-4.32L106.42-4.32Q106.14-4.32 105.98-4.52L105.98-4.52L94.09-23.62L94.09-23.62Q93.05-23.46 92.05-23.46L92.05-23.46ZM91.77-19.14L102.34-2.24L102.34-2.24Q103.74 0 106.42 0L106.42 0L106.42 0Q107.78 0 108.95-0.72L108.95-0.72L108.95-0.72Q110.63-1.76 111.07-3.72L111.07-3.72L111.07-3.72Q111.51-5.65 110.47-7.33L110.47-7.33L101.50-21.66L101.50-21.66Q105.90-24.18 108.50-28.55L108.50-28.55L108.50-28.55Q111.19-33.07 111.19-38.32L111.19-38.32L111.19-38.32Q111.19-46.25 105.58-51.85L105.58-51.85L105.58-51.85Q99.98-57.46 92.05-57.46L92.05-57.46L68.11-57.46L68.11-57.46Q66.10-57.46 64.70-56.05L64.70-56.05L64.70-56.05Q63.30-54.65 63.30-52.69L63.30-52.69L63.30-4.80L63.30-4.80Q63.30-2.80 64.70-1.40L64.70-1.40L64.70-1.40Q66.10 0 68.11 0L68.11 0L68.11 0Q70.07 0 71.47-1.40L71.47-1.40L71.47-1.40Q72.87-2.80 72.87-4.80L72.87-4.80L72.87-19.14L91.77-19.14ZM72.87-28.75L72.87-47.89L92.05-47.89L92.05-47.89Q96.01-47.89 98.82-45.08L98.82-45.08L98.82-45.08Q101.62-42.28 101.62-38.32L101.62-38.32L101.62-38.32Q101.62-34.35 98.82-31.55L98.82-31.55L98.82-31.55Q96.01-28.75 92.05-28.75L92.05-28.75L72.87-28.75ZM105.94-38.32L105.94-38.32Q105.94-44.04 101.86-48.13L101.86-48.13L101.86-48.13Q97.77-52.21 92.05-52.21L92.05-52.21L68.59-52.21L68.59-24.42L92.05-24.42L92.05-24.42Q97.77-24.42 101.86-28.51L101.86-28.51L101.86-28.51Q105.94-32.55 105.94-38.32L105.94-38.32ZM127.40-52.69L127.40-4.80L127.40-4.80Q127.40-4.32 126.92-4.32L126.92-4.32L126.92-4.32Q126.44-4.32 126.44-4.80L126.44-4.80L126.44-52.69L126.44-52.69Q126.44-53.17 126.92-53.17L126.92-53.17L126.92-53.17Q127.40-53.17 127.40-52.69L127.40-52.69ZM122.12-52.69L122.12-4.80L122.12-4.80Q122.12-2.80 123.52-1.40L123.52-1.40L123.52-1.40Q124.92 0 126.92 0L126.92 0L126.92 0Q128.88 0 130.29-1.40L130.29-1.40L130.29-1.40Q131.69-2.80 131.69-4.80L131.69-4.80L131.69-52.69L131.69-52.69Q131.69-54.65 130.29-56.05L130.29-56.05L130.29-56.05Q128.88-57.46 126.92-57.46L126.92-57.46L126.92-57.46Q124.92-57.46 123.52-56.05L123.52-56.05L123.52-56.05Q122.12-54.65 122.12-52.69L122.12-52.69ZM200.23-52.69L200.23-4.80L200.23-4.80Q200.23-4.32 199.75-4.32L199.75-4.32L199.75-4.32Q199.27-4.32 199.27-4.80L199.27-4.80L199.27-51.29L173.81-18.86L173.81-18.86Q173.41-18.38 173.05-18.86L173.05-18.86L147.58-51.29L147.58-4.80L147.58-4.80Q147.58-4.32 147.10-4.32L147.10-4.32L147.10-4.32Q146.62-4.32 146.62-4.80L146.62-4.80L146.62-52.69L146.62-52.69Q146.62-53.01 146.94-53.13L146.94-53.13L146.94-53.13Q147.26-53.25 147.46-52.97L147.46-52.97L173.41-19.94L199.39-52.97L199.39-52.97Q199.59-53.25 199.91-53.13L199.91-53.13L199.91-53.13Q200.23-53.01 200.23-52.69L200.23-52.69ZM204.56-4.80L204.56-52.69L204.56-52.69Q204.56-56.09 201.31-57.22L201.31-57.22L201.31-57.22Q198.11-58.34 195.99-55.65L195.99-55.65L173.41-26.91L150.86-55.65L150.86-55.65Q148.74-58.34 145.54-57.22L145.54-57.22L145.54-57.22Q142.30-56.09 142.30-52.69L142.30-52.69L142.30-4.80L142.30-4.80Q142.30-2.80 143.70-1.40L143.70-1.40L143.70-1.40Q145.10 0 147.10 0L147.10 0L147.10 0Q149.06 0 150.46-1.40L150.46-1.40L150.46-1.40Q151.87-2.80 151.87-4.80L151.87-4.80L151.87-38.84L169.64-16.22L169.64-16.22Q171.08-14.37 173.41-14.37L173.41-14.37L173.41-14.37Q175.77-14.37 177.21-16.22L177.21-16.22L194.99-38.84L194.99-4.80L194.99-4.80Q194.99-2.80 196.39-1.40L196.39-1.40L196.39-1.40Q197.79 0 199.75 0L199.75 0L199.75 0Q201.75 0 203.16-1.40L203.16-1.40L203.16-1.40Q204.56-2.80 204.56-4.80L204.56-4.80ZM263.61-4.36L263.61-4.36Q263.53-4.32 263.41-4.32L263.41-4.32L263.41-4.32Q263.13-4.32 263.01-4.60L263.01-4.60L257.73-16.30L226.02-16.30L220.77-4.60L220.77-4.60Q220.57-4.16 220.13-4.36L220.13-4.36L220.13-4.36Q219.69-4.56 219.89-5.00L219.89-5.00L241.43-52.89L241.43-52.89Q241.55-53.17 241.87-53.17L241.87-53.17L241.87-53.17Q242.19-53.17 242.31-52.89L242.31-52.89L263.85-5.00L263.85-5.00Q264.05-4.56 263.61-4.36L263.61-4.36ZM267.82-6.77L246.24-54.65L246.24-54.65Q245.00-57.50 241.87-57.50L241.87-57.50L241.87-57.50Q238.79-57.50 237.51-54.65L237.51-54.65L215.97-6.77L215.97-6.77Q215.17-4.96 215.85-3.12L215.85-3.12L215.85-3.12Q216.57-1.24 218.37-0.44L218.37-0.44L218.37-0.44Q220.17 0.36 222.01-0.32L222.01-0.32L222.01-0.32Q223.89-1.04 224.70-2.84L224.70-2.84L228.82-11.97L254.96-11.97L259.05-2.84L259.05-2.84Q260.33 0 263.45 0L263.45 0L263.45 0Q264.45 0 265.42-0.44L265.42-0.44L265.42-0.44Q267.22-1.24 267.90-3.12L267.90-3.12L267.90-3.12Q268.62-4.96 267.82-6.77L267.82-6.77ZM250.64-21.58L233.14-21.58L241.87-41.04L250.64-21.58ZM241.87-51.53L226.46-17.26L257.29-17.26L241.87-51.53ZM307.98-23.46L284.51-23.46L284.51-4.80L284.51-4.80Q284.51-4.32 284.03-4.32L284.03-4.32L284.03-4.32Q283.55-4.32 283.55-4.80L283.55-4.80L283.55-52.69L283.55-52.69Q283.55-53.17 284.03-53.17L284.03-53.17L307.98-53.17L307.98-53.17Q314.10-53.17 318.47-48.81L318.47-48.81L318.47-48.81Q322.79-44.44 322.79-38.32L322.79-38.32L322.79-38.32Q322.79-32.99 319.43-28.91L319.43-28.91L319.43-28.91Q316.10-24.86 311.02-23.78L311.02-23.78L322.75-5.04L322.75-5.04Q322.99-4.64 322.59-4.36L322.59-4.36L322.59-4.36Q322.47-4.32 322.35-4.32L322.35-4.32L322.35-4.32Q322.07-4.32 321.91-4.52L321.91-4.52L310.02-23.62L310.02-23.62Q308.98-23.46 307.98-23.46L307.98-23.46ZM307.70-19.14L318.27-2.24L318.27-2.24Q319.67 0 322.35 0L322.35 0L322.35 0Q323.71 0 324.87-0.72L324.87-0.72L324.87-0.72Q326.55-1.76 326.99-3.72L326.99-3.72L326.99-3.72Q327.43-5.65 326.39-7.33L326.39-7.33L317.42-21.66L317.42-21.66Q321.83-24.18 324.43-28.55L324.43-28.55L324.43-28.55Q327.11-33.07 327.11-38.32L327.11-38.32L327.11-38.32Q327.11-46.25 321.51-51.85L321.51-51.85L321.51-51.85Q315.90-57.46 307.98-57.46L307.98-57.46L284.03-57.46L284.03-57.46Q282.03-57.46 280.63-56.05L280.63-56.05L280.63-56.05Q279.23-54.65 279.23-52.69L279.23-52.69L279.23-4.80L279.23-4.80Q279.23-2.80 280.63-1.40L280.63-1.40L280.63-1.40Q282.03 0 284.03 0L284.03 0L284.03 0Q285.99 0 287.40-1.40L287.40-1.40L287.40-1.40Q288.80-2.80 288.80-4.80L288.80-4.80L288.80-19.14L307.70-19.14ZM288.80-28.75L288.80-47.89L307.98-47.89L307.98-47.89Q311.94-47.89 314.74-45.08L314.74-45.08L314.74-45.08Q317.54-42.28 317.54-38.32L317.54-38.32L317.54-38.32Q317.54-34.35 314.74-31.55L314.74-31.55L314.74-31.55Q311.94-28.75 307.98-28.75L307.98-28.75L288.80-28.75ZM321.87-38.32L321.87-38.32Q321.87-44.04 317.79-48.13L317.79-48.13L317.79-48.13Q313.70-52.21 307.98-52.21L307.98-52.21L284.51-52.21L284.51-24.42L307.98-24.42L307.98-24.42Q313.70-24.42 317.79-28.51L317.79-28.51L317.79-28.51Q321.87-32.55 321.87-38.32L321.87-38.32ZM353.14-29.67L343.33-21.78L343.33-4.80L343.33-4.80Q343.33-4.32 342.85-4.32L342.85-4.32L342.85-4.32Q342.37-4.32 342.37-4.80L342.37-4.80L342.37-52.69L342.37-52.69Q342.37-53.17 342.85-53.17L342.85-53.17L342.85-53.17Q343.33-53.17 343.33-52.69L343.33-52.69L343.33-23.02L380.85-53.05L380.85-53.05Q381.21-53.37 381.53-52.97L381.53-52.97L381.53-52.97Q381.81-52.61 381.45-52.29L381.45-52.29L353.90-30.27L381.49-5.13L381.49-5.13Q381.81-4.80 381.49-4.48L381.49-4.48L381.49-4.48Q381.37-4.32 381.17-4.32L381.17-4.32L381.17-4.32Q380.97-4.32 380.81-4.44L380.81-4.44L353.14-29.67ZM352.94-23.98L377.92-1.24L377.92-1.24Q379.28 0 381.13 0L381.13 0L381.13 0Q383.25 0 384.69-1.56L384.69-1.56L384.69-1.56Q386.01-3.04 385.93-5.00L385.93-5.00L385.93-5.00Q385.85-7.01 384.37-8.33L384.37-8.33L360.51-30.03L384.13-48.93L384.13-48.93Q385.69-50.17 385.89-52.17L385.89-52.17L385.89-52.17Q386.13-54.13 384.89-55.65L384.89-55.65L384.89-55.65Q383.65-57.22 381.69-57.46L381.69-57.46L381.69-57.46Q379.68-57.66 378.16-56.42L378.16-56.42L347.61-31.99L347.61-52.69L347.61-52.69Q347.61-54.65 346.21-56.05L346.21-56.05L346.21-56.05Q344.81-57.46 342.85-57.46L342.85-57.46L342.85-57.46Q340.85-57.46 339.45-56.05L339.45-56.05L339.45-56.05Q338.04-54.65 338.04-52.69L338.04-52.69L338.04-4.80L338.04-4.80Q338.04-2.80 339.45-1.40L339.45-1.40L339.45-1.40Q340.85 0 342.85 0L342.85 0L342.85 0Q344.81 0 346.21-1.40L346.21-1.40L346.21-1.40Q347.61-2.80 347.61-4.80L347.61-4.80L347.61-19.82L347.61-19.82Q347.93-19.98 348.21-20.22L348.21-20.22L352.94-23.98Z"></path></g><g id="" class="logo--name svgSloganText_1 sloganBox" transform="scale(1) translate(216.08999943733215,361.7499996185303)" fill="url(#sloganGradient2311761688)"><path d="M6.72-7.42L6.72-7.42L3.58-7.42L3.58-1.66L6.72-1.66L6.72-1.66Q8.28-1.66 9.07-2.44L9.07-2.44L9.07-2.44Q9.86-3.22 9.86-4.54L9.86-4.54L9.86-4.54Q9.86-5.74 9.07-6.58L9.07-6.58L9.07-6.58Q8.28-7.42 6.72-7.42ZM1.80-16.01L6.72-16.01L6.72-16.01Q8.83-16.01 10.01-14.81L10.01-14.81L10.01-14.81Q11.18-13.61 11.18-11.69L11.18-11.69L11.18-11.69Q11.18-9.41 9.34-8.26L9.34-8.26L9.34-8.26Q10.32-7.68 10.98-6.72L10.98-6.72L10.98-6.72Q11.64-5.76 11.64-4.54L11.64-4.54L11.64-4.54Q11.64-2.52 10.36-1.26L10.36-1.26L10.36-1.26Q9.07 0 6.72 0L6.72 0L1.80 0L1.80-16.01ZM6.72-14.35L6.72-14.35L3.58-14.35L3.58-9.05L6.72-9.05L6.72-9.05Q7.99-9.05 8.70-9.76L8.70-9.76L8.70-9.76Q9.41-10.46 9.41-11.69L9.41-11.69L9.41-11.69Q9.41-12.89 8.71-13.62L8.71-13.62L8.71-13.62Q8.02-14.35 6.72-14.35ZM23.18-16.01L24.96-16.01L24.96-5.50L24.96-5.50Q24.96-4.30 24.79-3.60L24.79-3.60L24.79-3.60Q24.41-1.78 23.11-0.82L23.11-0.82L23.11-0.82Q21.82 0.14 19.80 0.14L19.80 0.14L19.80 0.14Q17.78 0.14 16.50-0.82L16.50-0.82L16.50-0.82Q15.22-1.78 14.81-3.58L14.81-3.58L14.81-3.58Q14.64-4.27 14.64-5.50L14.64-5.50L14.64-16.01L16.42-16.01L16.42-5.50L16.42-5.50Q16.42-4.32 16.66-3.58L16.66-3.58L16.66-3.58Q17.33-1.54 19.80-1.54L19.80-1.54L19.80-1.54Q22.27-1.54 22.94-3.58L22.94-3.58L22.94-3.58Q23.18-4.30 23.18-5.50L23.18-5.50L23.18-16.01ZM28.44-16.01L30.22-16.01L30.22 0L28.44 0L28.44-16.01ZM33.82 0L33.82-16.01L35.59-16.01L35.59-1.68L42.94-1.68L42.94 0L33.82 0ZM46.06 0L46.06-16.01L51.46-16.01L51.46-16.01Q53.52-16.01 54.77-15.04L54.77-15.04L54.77-15.04Q56.02-14.06 56.30-12.43L56.30-12.43L56.30-12.43Q56.38-12 56.38-11.23L56.38-11.23L56.38-4.78L56.38-4.78Q56.38-4.01 56.30-3.58L56.30-3.58L56.30-3.58Q56.02-1.94 54.77-0.97L54.77-0.97L54.77-0.97Q53.52 0 51.46 0L51.46 0L46.06 0ZM54.60-4.78L54.60-11.23L54.60-11.23Q54.60-12.02 54.48-12.43L54.48-12.43L54.48-12.43Q53.98-14.33 51.46-14.33L51.46-14.33L47.83-14.33L47.83-1.68L51.46-1.68L51.46-1.68Q53.98-1.68 54.48-3.58L54.48-3.58L54.48-3.58Q54.60-3.98 54.60-4.78L54.60-4.78ZM69.53-6.65L64.78-16.01L66.72-16.01L70.42-8.59L74.18-16.01L76.08-16.01L71.30-6.65L71.30 0L69.53 0L69.53-6.65ZM87.98-5.50L87.98-10.51L87.98-10.51Q87.98-11.71 87.74-12.43L87.74-12.43L87.74-12.43Q87.07-14.47 84.12-14.47L84.12-14.47L84.12-14.47Q81.17-14.47 80.50-12.43L80.50-12.43L80.50-12.43Q80.26-11.69 80.26-10.51L80.26-10.51L80.26-5.50L80.26-5.50Q80.26-4.32 80.50-3.58L80.50-3.58L80.50-3.58Q81.17-1.54 84.12-1.54L84.12-1.54L84.12-1.54Q87.07-1.54 87.74-3.58L87.74-3.58L87.74-3.58Q87.98-4.30 87.98-5.50L87.98-5.50ZM89.76-10.51L89.76-10.51L89.76-5.50L89.76-5.50Q89.76-4.30 89.59-3.60L89.59-3.60L89.59-3.60Q88.78 0.14 84.12 0.14L84.12 0.14L84.12 0.14Q79.49 0.14 78.65-3.58L78.65-3.58L78.65-3.58Q78.48-4.27 78.48-5.50L78.48-5.50L78.48-10.51L78.48-10.51Q78.48-11.74 78.65-12.43L78.65-12.43L78.65-12.43Q79.49-16.15 84.12-16.15L84.12-16.15L84.12-16.15Q88.78-16.15 89.59-12.41L89.59-12.41L89.59-12.41Q89.76-11.71 89.76-10.51ZM101.54-16.01L103.32-16.01L103.32-5.50L103.32-5.50Q103.32-4.30 103.15-3.60L103.15-3.60L103.15-3.60Q102.77-1.78 101.47-0.82L101.47-0.82L101.47-0.82Q100.18 0.14 98.16 0.14L98.16 0.14L98.16 0.14Q96.14 0.14 94.86-0.82L94.86-0.82L94.86-0.82Q93.58-1.78 93.17-3.58L93.17-3.58L93.17-3.58Q93.00-4.27 93.00-5.50L93.00-5.50L93.00-16.01L94.78-16.01L94.78-5.50L94.78-5.50Q94.78-4.32 95.02-3.58L95.02-3.58L95.02-3.58Q95.69-1.54 98.16-1.54L98.16-1.54L98.16-1.54Q100.63-1.54 101.30-3.58L101.30-3.58L101.30-3.58Q101.54-4.30 101.54-5.50L101.54-5.50L101.54-16.01ZM106.80-16.01L111.53-16.01L111.53-16.01Q113.78-16.01 115.12-14.78L115.12-14.78L115.12-14.78Q116.45-13.56 116.45-11.09L116.45-11.09L116.45-11.09Q116.45-7.70 113.90-6.60L113.90-6.60L116.69 0L114.82 0L112.20-6.19L112.20-6.19Q111.98-6.17 111.53-6.17L111.53-6.17L108.55-6.17L108.55 0L106.80 0L106.80-16.01ZM108.58-7.85L111.53-7.85L111.53-7.85Q114.67-7.85 114.67-11.09L114.67-11.09L114.67-11.09Q114.67-14.33 111.53-14.33L111.53-14.33L108.58-14.33L108.58-7.85ZM125.93 0L125.93-16.01L131.33-16.01L131.33-16.01Q133.39-16.01 134.64-15.04L134.64-15.04L134.64-15.04Q135.89-14.06 136.18-12.43L136.18-12.43L136.18-12.43Q136.25-12 136.25-11.23L136.25-11.23L136.25-4.78L136.25-4.78Q136.25-4.01 136.18-3.58L136.18-3.58L136.18-3.58Q135.89-1.94 134.64-0.97L134.64-0.97L134.64-0.97Q133.39 0 131.33 0L131.33 0L125.93 0ZM134.47-4.78L134.47-11.23L134.47-11.23Q134.47-12.02 134.35-12.43L134.35-12.43L134.35-12.43Q133.85-14.33 131.33-14.33L131.33-14.33L127.70-14.33L127.70-1.68L131.33-1.68L131.33-1.68Q133.85-1.68 134.35-3.58L134.35-3.58L134.35-3.58Q134.47-3.98 134.47-4.78L134.47-4.78ZM139.61-16.01L144.34-16.01L144.34-16.01Q146.59-16.01 147.92-14.78L147.92-14.78L147.92-14.78Q149.26-13.56 149.26-11.09L149.26-11.09L149.26-11.09Q149.26-7.70 146.71-6.60L146.71-6.60L149.50 0L147.62 0L145.01-6.19L145.01-6.19Q144.79-6.17 144.34-6.17L144.34-6.17L141.36-6.17L141.36 0L139.61 0L139.61-16.01ZM141.38-7.85L144.34-7.85L144.34-7.85Q147.48-7.85 147.48-11.09L147.48-11.09L147.48-11.09Q147.48-14.33 144.34-14.33L144.34-14.33L141.38-14.33L141.38-7.85ZM152.74 0L152.74-16.01L161.35-16.01L161.35-14.33L154.46-14.33L154.46-9.07L160.15-9.07L160.15-7.39L154.51-7.39L154.51-1.68L161.38-1.68L161.38 0L152.74 0ZM163.78 0L169.49-16.01L171.02-16.01L176.71 0L174.91 0L173.54-3.96L166.97-3.96L165.60 0L163.78 0ZM172.99-5.64L170.26-13.70L167.50-5.64L172.99-5.64ZM179.35 0L179.35-16.01L180.91-16.01L186.19-5.83L191.45-16.01L193.03-16.01L193.03 0L191.26 0L191.26-12.31L186.96-3.96L185.42-3.96L181.13-12.26L181.13 0L179.35 0ZM200.90 0.14L200.90 0.14L200.90 0.14Q197.88 0.14 196.10-1.56L196.10-1.56L197.23-2.83L197.23-2.83Q198.67-1.54 200.90-1.54L200.90-1.54L200.90-1.54Q202.44-1.54 203.34-2.32L203.34-2.32L203.34-2.32Q204.24-3.10 204.24-4.46L204.24-4.46L204.24-4.46Q204.24-6.84 200.81-7.42L200.81-7.42L200.81-7.42Q198.82-7.75 197.48-8.78L197.48-8.78L197.48-8.78Q196.15-9.82 196.15-11.71L196.15-11.71L196.15-11.71Q196.15-13.87 197.54-15.01L197.54-15.01L197.54-15.01Q198.94-16.15 200.98-16.15L200.98-16.15L200.98-16.15Q203.90-16.15 205.54-14.45L205.54-14.45L204.38-13.20L204.38-13.20Q203.11-14.47 200.98-14.47L200.98-14.47L200.98-14.47Q199.63-14.47 198.78-13.78L198.78-13.78L198.78-13.78Q197.93-13.08 197.93-11.71L197.93-11.71L197.93-11.71Q197.93-9.65 201.14-9.05L201.14-9.05L201.14-9.05Q206.02-8.14 206.02-4.46L206.02-4.46L206.02-4.46Q206.02-2.35 204.62-1.10L204.62-1.10L204.62-1.10Q203.23 0.14 200.90 0.14Z"></path></g></g></g></g></svg>